<mxfile host="app.diagrams.net" modified="2024-01-25T10:18:28.453Z" agent="Mozilla/5.0 (Macintosh; Intel Mac OS X 10_15_7) AppleWebKit/605.1.15 (KHTML, like Gecko) Version/17.2.1 Safari/605.1.15" etag="HDAdF3wbI4O0szR9A7Xn" version="23.0.1" type="github">
  <diagram name="Seite-1" id="4Bi2S3Lz361srziXtHND">
    <mxGraphModel dx="999" dy="751" grid="1" gridSize="10" guides="1" tooltips="1" connect="1" arrows="1" fold="1" page="1" pageScale="1" pageWidth="827" pageHeight="1169" math="0" shadow="0">
      <root>
        <mxCell id="0" />
        <mxCell id="1" parent="0" />
      </root>
    </mxGraphModel>
  </diagram>
</mxfile>
